<svg width="30" height="30" viewBox="0 0 30 30" fill="none" xmlns="http://www.w3.org/2000/svg">
<path d="M5 25C4.3125 25 3.72396 24.7552 3.23438 24.2656C2.74479 23.776 2.5 23.1875 2.5 22.5V7.49997C2.5 6.81247 2.74479 6.22393 3.23438 5.73434C3.72396 5.24476 4.3125 4.99997 5 4.99997H25C25.6875 4.99997 26.276 5.24476 26.7656 5.73434C27.2552 6.22393 27.5 6.81247 27.5 7.49997V22.5C27.5 23.1875 27.2552 23.776 26.7656 24.2656C26.276 24.7552 25.6875 25 25 25H5ZM15 16.25L5 9.99997V22.5H25V9.99997L15 16.25ZM15 13.75L25 7.49997H5L15 13.75ZM5 9.99997V7.49997V22.5V9.99997Z" fill="url(#paint0_linear_10_12)"/>
<defs>
<linearGradient id="paint0_linear_10_12" x1="15" y1="4.99997" x2="15" y2="25" gradientUnits="userSpaceOnUse">
<stop stop-color="#998CCB"/>
<stop offset="1" stop-color="#6556A0"/>
</linearGradient>
</defs>
</svg>
