<svg width="30" height="30" viewBox="0 0 30 30" fill="none" xmlns="http://www.w3.org/2000/svg">
<path d="M10 26.25C8.27083 26.25 6.79688 25.6406 5.57812 24.4218C4.35938 23.2031 3.75 21.7291 3.75 20V9.99997C3.75 8.2708 4.35938 6.79684 5.57812 5.57809C6.79688 4.35934 8.27083 3.74997 10 3.74997H20C21.7292 3.74997 23.2031 4.35934 24.4219 5.57809C25.6406 6.79684 26.25 8.2708 26.25 9.99997V20C26.25 21.7291 25.6406 23.2031 24.4219 24.4218C23.2031 25.6406 21.7292 26.25 20 26.25H10ZM10 23.75H20C21.0417 23.75 21.9271 23.3854 22.6562 22.6562C23.3854 21.9271 23.75 21.0416 23.75 20V9.99997C23.75 8.9583 23.3854 8.07289 22.6562 7.34372C21.9271 6.61455 21.0417 6.24997 20 6.24997H10C8.95833 6.24997 8.07292 6.61455 7.34375 7.34372C6.61458 8.07289 6.25 8.9583 6.25 9.99997V20C6.25 21.0416 6.61458 21.9271 7.34375 22.6562C8.07292 23.3854 8.95833 23.75 10 23.75ZM15 21.25C16.5625 21.25 17.8906 20.7031 18.9844 19.6093C20.0781 18.5156 20.625 17.1875 20.625 15.625C20.625 14.0625 20.0781 12.7343 18.9844 11.6406C17.8906 10.5468 16.5625 9.99997 15 9.99997C13.4375 9.99997 12.1094 10.5468 11.0156 11.6406C9.92188 12.7343 9.375 14.0625 9.375 15.625C9.375 17.1875 9.92188 18.5156 11.0156 19.6093C12.1094 20.7031 13.4375 21.25 15 21.25ZM15 18.75C14.125 18.75 13.3854 18.4479 12.7812 17.8437C12.1771 17.2396 11.875 16.5 11.875 15.625C11.875 14.75 12.1771 14.0104 12.7812 13.4062C13.3854 12.8021 14.125 12.5 15 12.5C15.875 12.5 16.6146 12.8021 17.2188 13.4062C17.8229 14.0104 18.125 14.75 18.125 15.625C18.125 16.5 17.8229 17.2396 17.2188 17.8437C16.6146 18.4479 15.875 18.75 15 18.75ZM15 9.37497C15.3542 9.37497 15.651 9.25518 15.8906 9.01559C16.1302 8.77601 16.25 8.47914 16.25 8.12497C16.25 7.7708 16.1302 7.47393 15.8906 7.23434C15.651 6.99476 15.3542 6.87497 15 6.87497C14.6458 6.87497 14.349 6.99476 14.1094 7.23434C13.8698 7.47393 13.75 7.7708 13.75 8.12497C13.75 8.47914 13.8698 8.77601 14.1094 9.01559C14.349 9.25518 14.6458 9.37497 15 9.37497Z" fill="url(#paint0_linear_10_14)"/>
<defs>
<linearGradient id="paint0_linear_10_14" x1="15" y1="3.74997" x2="15" y2="26.25" gradientUnits="userSpaceOnUse">
<stop stop-color="#998CCB"/>
<stop offset="1" stop-color="#6556A0"/>
</linearGradient>
</defs>
</svg>
