<svg width="30" height="30" viewBox="0 0 30 30" fill="none" xmlns="http://www.w3.org/2000/svg">
<g clip-path="url(#clip0_20_101)">
<path d="M22.1985 17.2384C22.14 17.2104 19.9529 16.1334 19.5643 15.9935C19.4056 15.9365 19.2357 15.8809 19.0549 15.8809C18.7596 15.8809 18.5115 16.0281 18.3182 16.3172C18.0998 16.6419 17.4384 17.415 17.234 17.646C17.2073 17.6764 17.1709 17.7129 17.1491 17.7129C17.1295 17.7129 16.791 17.5735 16.6886 17.529C14.3424 16.5099 12.5616 14.0591 12.3174 13.6458C12.2826 13.5864 12.2811 13.5594 12.2808 13.5594C12.2894 13.528 12.3683 13.4489 12.409 13.4081C12.5281 13.2902 12.6572 13.1348 12.7821 12.9846C12.8412 12.9134 12.9004 12.8421 12.9585 12.7748C13.1397 12.5641 13.2204 12.4004 13.3139 12.2109L13.3629 12.1124C13.5912 11.6588 13.3962 11.276 13.3332 11.1524C13.2814 11.049 12.358 8.82021 12.2598 8.58605C12.0237 8.02102 11.7117 7.75793 11.2782 7.75793C11.2379 7.75793 11.2782 7.75793 11.1095 7.76504C10.904 7.77371 9.78537 7.92099 9.29076 8.23277C8.76624 8.56345 7.87891 9.61755 7.87891 11.4713C7.87891 13.1397 8.93767 14.715 9.39225 15.3141C9.40355 15.3292 9.4243 15.3599 9.45439 15.4039C11.1953 17.9463 13.3655 19.8305 15.5655 20.7094C17.6835 21.5554 18.6865 21.6532 19.2567 21.6532H19.2568C19.4964 21.6532 19.6882 21.6344 19.8574 21.6177L19.9647 21.6075C20.6964 21.5426 22.3043 20.7095 22.6701 19.6931C22.9582 18.8925 23.0342 18.0178 22.8425 17.7004C22.7112 17.4846 22.4849 17.376 22.1985 17.2384Z" fill="url(#paint0_linear_20_101)"/>
<path d="M15.2663 0C7.14134 0 0.531211 6.56045 0.531211 14.6243C0.531211 17.2325 1.2292 19.7855 2.55144 22.0199L0.0206267 29.4853C-0.0265161 29.6245 0.0085488 29.7784 0.111503 29.8832C0.185822 29.9591 0.286633 30 0.389588 30C0.429036 30 0.468776 29.9941 0.507542 29.9817L8.29196 27.508C10.4222 28.6462 12.8298 29.247 15.2664 29.247C23.3905 29.2471 30 22.6873 30 14.6243C30 6.56045 23.3905 0 15.2663 0ZM15.2663 26.2007C12.9735 26.2007 10.7528 25.5387 8.84394 24.2861C8.77975 24.2439 8.70524 24.2223 8.63024 24.2223C8.59059 24.2223 8.55085 24.2283 8.51219 24.2406L4.61267 25.4801L5.8715 21.7663C5.91222 21.6461 5.89186 21.5135 5.81686 21.411C4.36322 19.4248 3.59482 17.0781 3.59482 14.6243C3.59482 8.24026 8.8306 3.04636 15.2662 3.04636C21.701 3.04636 26.9362 8.24026 26.9362 14.6243C26.9363 21.0076 21.7012 26.2007 15.2663 26.2007Z" fill="url(#paint1_linear_20_101)"/>
</g>
<defs>
<linearGradient id="paint0_linear_20_101" x1="15.4135" y1="7.75793" x2="15.4135" y2="21.6532" gradientUnits="userSpaceOnUse">
<stop stop-color="#998CCB"/>
<stop offset="1" stop-color="#6556A0"/>
</linearGradient>
<linearGradient id="paint1_linear_20_101" x1="15" y1="0" x2="15" y2="30" gradientUnits="userSpaceOnUse">
<stop stop-color="#998CCB"/>
<stop offset="1" stop-color="#6556A0"/>
</linearGradient>
<clipPath id="clip0_20_101">
<rect width="30" height="30" fill="white"/>
</clipPath>
</defs>
</svg>
