<svg width="40" height="40" viewBox="0 0 40 40" fill="none" xmlns="http://www.w3.org/2000/svg">
<g clip-path="url(#clip0_19_71)">
<path fill-rule="evenodd" clip-rule="evenodd" d="M30.9078 31.7799L33.2675 5.34672L33.2985 5H32.9507H7.04916H6.70148L6.73237 5.34672L9.08957 31.7842L9.10923 32.0046L9.32157 32.0636L19.8995 35H20.0691L30.6758 32.0592L30.8881 32.0004L30.9078 31.7799L30.9078 31.7799ZM20.0217 10.8487H27.7512L27.5185 13.5536L19.8933 16.9434L20.0217 17.5533H27.1778L26.354 26.992L19.9959 28.7548L13.6398 26.9949L13.2361 22.4746H15.8533L16.063 24.7665L16.0834 24.9886L16.2988 25.0458L19.9406 26.0134L20.1065 26.0121L23.7064 25.0115L23.9208 24.9519L23.9397 24.7309L24.2996 20.4978L24.3289 20.1524H23.9815H20.0217H13.0211L12.7829 17.4357L20.1464 14.2841L20.6691 14.0601L20.5444 13.4478H20.0217H12.4473L12.2166 10.8487H19.9888L20.0217 10.8487Z" fill="#424242" fill-opacity="0.5"/>
</g>
<defs>
<clipPath id="clip0_19_71">
<rect width="40" height="40" fill="white"/>
</clipPath>
</defs>
</svg>
