<svg width="40" height="40" viewBox="0 0 40 40" fill="none" xmlns="http://www.w3.org/2000/svg">
<g clip-path="url(#clip0_19_46)">
<path opacity="0.58" d="M40 0H0V40H40V0Z" fill="white" fill-opacity="0.5"/>
<path d="M19.9997 3.33337H14.4497C11.383 3.33337 8.89978 5.81671 8.89978 8.88337C8.89978 11.95 11.383 14.4334 14.4497 14.4334H19.9997V3.33337Z" fill="#292D32" fill-opacity="0.5"/>
<path opacity="0.4" d="M19.9997 14.45H14.4497C11.383 14.45 8.89978 16.9333 8.89978 19.9999C8.89978 23.0666 11.383 25.5499 14.4497 25.5499H19.9997V14.45Z" fill="#292D32" fill-opacity="0.5"/>
<path d="M19.9997 25.5502H14.4497C11.383 25.5502 8.89978 28.0335 8.89978 31.1002C8.89978 34.1668 11.383 36.6502 14.4497 36.6502C17.5164 36.6502 19.9997 34.1668 19.9997 31.1002V25.5502Z" fill="#292D32" fill-opacity="0.5"/>
<path opacity="0.4" d="M20 3.33337H25.55C28.6167 3.33337 31.1 5.81671 31.1 8.88337C31.1 11.95 28.6167 14.4334 25.55 14.4334H20V3.33337Z" fill="#292D32" fill-opacity="0.5"/>
<path d="M25.55 14.45C28.6167 14.45 31.1 16.9333 31.1 19.9999C31.1 23.0666 28.6167 25.5499 25.55 25.5499C22.4833 25.5499 20 23.0666 20 19.9999C20 16.9333 22.4833 14.45 25.55 14.45Z" fill="#292D32" fill-opacity="0.5"/>
</g>
<defs>
<clipPath id="clip0_19_46">
<rect width="40" height="40" fill="white"/>
</clipPath>
</defs>
</svg>
