<svg width="40" height="40" viewBox="0 0 40 40" fill="none" xmlns="http://www.w3.org/2000/svg">
<g clip-path="url(#clip0_19_54)">
<path fill-rule="evenodd" clip-rule="evenodd" d="M30.9074 31.7803L33.267 5.34686L33.298 5.00012H32.9503H7.04986H6.70215L6.73306 5.34686L9.09015 31.7844L9.1098 32.0048L9.32215 32.0637L19.8995 35H20.0691L30.6755 32.0596L30.8878 32.0007L30.9075 31.7802L30.9074 31.7803ZM20 11.0428H27.7635L27.7169 11.566L27.5691 13.2097L27.5301 13.6467H20H19.9889H15.413H15.0653L15.0963 13.9935L15.3926 17.3138L15.4187 17.6056H15.7094H19.9889H20H26.6522H27.1775L27.13 18.1283V18.1295L26.3679 26.666L26.3388 26.9932L19.9842 28.7546L13.6403 26.9933L13.2366 22.4694H14.3892H15.8531L16.0579 24.7635L16.0778 24.9862L16.2924 25.0441L19.9035 26.0192H20.0681L20.0712 26.0184L20.3082 25.9551V25.9542L23.6875 25.0421L23.902 24.9842L23.922 24.7615L24.2983 20.5562L24.3293 20.2095H23.9815H20H19.9889H13.0348L12.2639 11.566L12.2172 11.0428H19.9889L20 11.0428Z" fill="#424242" fill-opacity="0.5"/>
</g>
<defs>
<clipPath id="clip0_19_54">
<rect width="40" height="40" fill="white"/>
</clipPath>
</defs>
</svg>
