<svg width="40" height="40" viewBox="0 0 40 40" fill="none" xmlns="http://www.w3.org/2000/svg">
<g clip-path="url(#clip0_19_69)">
<path d="M0.47998 0.837524V39.9575H39.6V0.837524H0.47998ZM20.8975 34.3025C20.3212 35.4738 19.22 36.2438 17.945 36.615C15.985 37.065 14.1112 36.8088 12.7162 35.9713C11.7825 35.3988 11.0537 34.5175 10.56 33.5025C11.5525 32.8963 12.5425 32.2863 13.535 31.68C13.5612 31.6913 13.6387 31.8325 13.7437 32.015C14.1225 32.6513 14.45 33.1013 15.0937 33.4163C15.7262 33.6313 17.1125 33.77 17.6487 32.6575C17.9762 32.0925 17.8712 30.2375 17.8712 28.2263C17.8712 25.065 17.8862 21.9563 17.8862 18.7563H21.545C21.545 22.1163 21.5637 25.485 21.545 28.84C21.5525 30.8963 21.7312 32.7663 20.8975 34.3025ZM36.0775 33.2688C34.8062 37.62 27.7137 37.7613 24.8812 34.8863C24.2825 34.21 23.9075 33.8563 23.55 33.075C25.0562 32.2088 25.0562 32.2088 26.5212 31.3613C27.3175 32.585 28.0537 33.2575 29.3775 33.5325C31.1737 33.7513 32.9812 33.135 32.5762 31.2275C32.16 29.6688 28.8987 29.29 26.6787 27.6238C24.425 26.11 23.8975 22.4325 25.7487 20.3313C26.3662 19.5538 27.4187 18.9738 28.5225 18.695C28.905 18.6463 29.2925 18.595 29.675 18.5463C31.8875 18.5013 33.2712 19.085 34.2862 20.22C34.5687 20.5063 34.7987 20.815 35.2312 21.485C34.0525 22.2363 34.0562 22.2288 32.3675 23.3225C32.0062 22.545 31.4087 22.0575 30.7762 21.8463C29.795 21.5488 28.5562 21.8725 28.3 22.91C28.2112 23.23 28.23 23.5275 28.3712 24.055C28.7687 24.9625 30.1037 25.3563 31.3012 25.9063C34.7487 27.305 35.9125 28.8025 36.1987 30.5875C36.4737 32.1238 36.1312 33.12 36.08 33.2688H36.0775Z" fill="#444444" fill-opacity="0.5"/>
</g>
<defs>
<clipPath id="clip0_19_69">
<rect width="40" height="40" fill="white"/>
</clipPath>
</defs>
</svg>
