<svg width="40" height="40" viewBox="0 0 40 40" fill="none" xmlns="http://www.w3.org/2000/svg">
<g clip-path="url(#clip0_19_58)">
<path d="M12.5 0H27.5C35.8333 0 40 4.16667 40 12.5V27.5C40 35.8333 35.8333 40 27.5 40H12.5C4.16667 40 0 35.8333 0 27.5V12.5C0 4.16667 4.16667 0 12.5 0Z" fill="#4D4D4D" fill-opacity="0.5"/>
<path d="M8.89058 22.2062C9.3812 21.1125 9.82808 20.0969 10.2968 19.0812C10.3561 18.8856 10.4762 18.7141 10.6398 18.5915C10.8034 18.469 11.0018 18.4019 11.2062 18.4C12.2062 18.4 12.4562 18.6344 12.4562 19.65V22.7437C12.4562 23.075 12.375 23.25 12.0187 23.1937C11.9896 23.1922 11.9603 23.1922 11.9312 23.1937C11.2625 23.1937 11.2625 23.1937 11.2625 22.5437C11.2625 21.6062 11.2625 20.6937 11.1968 19.75L10.2031 21.9375C10.1302 22.0979 10.0614 22.2573 9.99683 22.4156C9.78433 22.9156 9.49058 23.2875 8.87495 23.2719C8.25933 23.2562 8.02495 22.9031 7.81245 22.4156C7.49995 21.6719 7.14995 20.9344 6.81245 20.1969C6.74451 20.0312 6.64471 19.8804 6.5187 19.7531V22.6031C6.5187 22.7906 6.46245 23.1219 6.38433 23.1375C6.07354 23.1837 5.75761 23.1837 5.44683 23.1375C5.40308 23.1375 5.3562 22.9094 5.3562 22.7875V19.3875C5.3562 18.8187 5.5437 18.5187 6.00308 18.45C6.70308 18.3406 7.15308 18.3437 7.41558 18.8937C7.81245 19.7281 8.17495 20.5812 8.55308 21.4281C8.6437 21.6594 8.74995 21.8937 8.89058 22.2062ZM35.3906 17.6531L33.6718 18.0125C34.4468 18.5937 35.2343 19.0187 35.5468 19.9219C34.8125 19.45 34.0718 18.9844 33.3593 18.5062C33.2337 18.4094 33.1276 18.2896 33.0468 18.1531C32.8093 17.7937 32.8531 17.6531 33.2718 17.5281C33.6906 17.4031 34.0812 17.3625 34.5218 17.2719C33.95 16.8625 33.4218 16.4125 32.7281 16.2562C32.4896 16.1989 32.2691 16.0832 32.0864 15.9195C31.9037 15.7559 31.7644 15.5495 31.6812 15.3187C31.3134 14.4355 30.8961 13.5737 30.4312 12.7375C29.7615 11.6031 28.7336 10.7236 27.5093 10.2375C27.3038 10.179 27.0951 10.1321 26.8843 10.0969C26.6007 10.019 26.3221 9.92402 26.05 9.81249C25.7375 9.68437 25.4562 9.51562 25.15 9.38749C25.0982 9.37134 25.0435 9.36633 24.9897 9.37279C24.9358 9.37925 24.8839 9.39704 24.8375 9.42499C24.8031 9.44687 24.8375 9.60937 24.8593 9.69374C24.9069 9.80021 24.9712 9.89834 25.05 9.98437C25.4804 10.5304 25.7989 11.1558 25.9875 11.825C26.1343 12.1875 26.4187 12.5 26.5625 12.8469C26.6587 13.1059 26.675 13.3878 26.6093 13.6562C26.3605 14.4199 26.3737 15.2447 26.6468 16C26.6727 16.0672 26.7063 16.1311 26.7468 16.1906C26.7939 16.2347 26.844 16.2754 26.8968 16.3125C27.0875 15.7719 26.9937 15.125 27.5218 14.775L29.3968 17.875C28.7031 17.325 28.0093 16.8219 27.625 15.9594C27.6031 16.1223 27.5611 16.2818 27.5 16.4344C27.4031 16.6094 27.2812 16.8594 27.1312 16.8906C27.0225 16.902 26.9126 16.8904 26.8087 16.8564C26.7047 16.8225 26.6091 16.7671 26.5281 16.6937C26.3248 16.4834 26.1673 16.2331 26.0657 15.9588C25.964 15.6845 25.9204 15.392 25.9375 15.1C25.9375 14.5562 26.0656 14.0156 26.1218 13.4719C26.1408 13.339 26.1257 13.2036 26.0781 13.0781C25.8656 12.6031 25.6375 12.1406 25.4 11.675C25.1968 11.2327 24.964 10.8046 24.7031 10.3937C24.2843 9.78749 24.1875 9.45624 24.4531 9.09999C24.7187 8.74374 25.15 8.66562 25.7593 9.01249C26.4218 9.39374 27.15 9.51249 27.8343 9.77812C29.5156 10.4312 30.6875 11.675 31.475 13.2875C31.5812 13.5083 31.6854 13.7333 31.7875 13.9625C32.1687 14.9 32.6031 15.7594 33.6937 16.15C34.4078 16.4531 35.0035 16.9808 35.3906 17.6531ZM28.3687 22.9656L29.2374 23.7219L29.1625 23.8625C28.6531 23.8625 28.1062 24.075 27.6687 23.5812C27.5357 23.4294 27.3668 23.3132 27.1774 23.2433C26.988 23.1734 26.7841 23.1521 26.5843 23.1812C26.1062 23.2125 25.625 23.2 25.1468 23.1812C24.375 23.1594 23.6687 22.7656 23.75 21.7937C23.7968 21.1687 23.75 20.5156 23.75 19.875C23.75 19.0469 23.9968 18.625 24.8093 18.5562C25.8502 18.4767 26.8961 18.4914 27.9343 18.6C28.6 18.6594 28.8718 19.1187 28.8718 19.7937V21.7562C28.908 21.9846 28.8802 22.2186 28.7914 22.4321C28.7025 22.6456 28.5562 22.8303 28.3687 22.9656ZM27.6156 22.4062C27.6823 22.2025 27.7314 21.9934 27.7625 21.7812V19.8656C27.7731 19.7865 27.7658 19.7059 27.7411 19.63C27.7163 19.5541 27.6748 19.4847 27.6195 19.4271C27.5643 19.3694 27.4967 19.325 27.4219 19.297C27.3471 19.2691 27.267 19.2583 27.1875 19.2656C26.6375 19.2469 26.0843 19.2469 25.5343 19.2656C25.4517 19.2575 25.3683 19.2683 25.2906 19.2974C25.2128 19.3265 25.1428 19.3729 25.0857 19.4333C25.0287 19.4936 24.9863 19.5662 24.9617 19.6455C24.937 19.7247 24.9309 19.8086 24.9437 19.8906C24.9656 20.5156 24.9437 21.1687 24.9437 21.8062C24.936 21.8791 24.9432 21.9528 24.9649 22.0227C24.9867 22.0927 25.0225 22.1574 25.0702 22.2131C25.1179 22.2687 25.1765 22.3139 25.2423 22.3461C25.3082 22.3782 25.3799 22.3966 25.4531 22.4C25.7153 22.4156 25.9783 22.4156 26.2406 22.4L26.3343 22.2406L25.5562 21.7156C26.4468 21.525 27.0875 21.6156 27.6156 22.4062ZM13.2156 24.5719V23.8156H15.9718C16.1735 23.8251 16.3752 23.7954 16.5656 23.7281C16.6906 23.6719 16.7656 23.4969 16.8781 23.375C16.7562 23.3125 16.6375 23.2 16.5093 23.1937C15.7593 23.15 15.0031 23.175 14.2562 23.0906C13.4281 22.9969 13.1187 22.5656 13.1312 21.725V20.2437C13.1312 19.9844 13.2125 19.8937 13.4812 19.8844C14.3062 19.8656 14.3062 19.8531 14.3062 20.6937V22C14.2977 22.058 14.3029 22.1173 14.3215 22.173C14.34 22.2286 14.3714 22.2792 14.413 22.3205C14.4547 22.3618 14.5055 22.3928 14.5613 22.411C14.6171 22.4291 14.6763 22.4339 14.7343 22.425H16.5656C16.8218 22.425 16.8781 22.3125 16.8781 22.0812C16.8781 21.4562 16.8968 20.8594 16.8781 20.25C16.8468 19.725 17.1875 19.8187 17.5 19.8062C17.8125 19.7937 18.0656 19.8062 18.0531 20.2531C18.025 21.1906 18.0531 22.1281 18.0531 23.0406C18.0531 23.9531 17.7125 24.4906 16.7687 24.5531C15.6031 24.6312 14.425 24.5719 13.2156 24.5719ZM21.4625 18.4937H22.8562C23.1687 18.4937 23.3062 18.5375 23.3031 18.8906C23.3 19.2437 23.1093 19.2719 22.8343 19.2687H20.4375C19.9437 19.2687 19.8125 19.3937 19.8125 19.825C19.8125 20.2562 19.9343 20.4094 20.4375 20.4281C20.9406 20.4469 21.5375 20.4687 22.0843 20.5125C22.8656 20.575 23.2093 20.9625 23.2093 21.7406C23.2093 22.75 22.7812 23.1844 21.7656 23.1906H19.0187C18.7062 23.1906 18.6156 23.075 18.6156 22.7812C18.6156 22.4875 18.7343 22.4062 19.0093 22.4125C19.7781 22.425 20.5489 22.425 21.3218 22.4125C21.9187 22.4125 22.0937 22.225 22.0937 21.7219C22.0937 21.3344 21.9 21.1812 21.5312 21.1719C20.9384 21.1715 20.346 21.1413 19.7562 21.0812C18.8687 20.9594 18.6125 20.5375 18.6906 19.4844C18.7343 18.9312 19.2843 18.5031 19.9781 18.4906C20.4718 18.4875 20.9687 18.4937 21.4625 18.4937ZM29.3375 18.5062H30.4281C30.4281 18.6656 30.4531 18.8187 30.4531 18.9719V21.5C30.4531 22.125 30.5156 22.3844 31.3906 22.4156C32.1031 22.4406 32.8156 22.4156 33.525 22.4156C33.7937 22.4156 33.9656 22.4469 33.9593 22.7844C33.9531 23.1219 33.8562 23.2 33.55 23.1906C32.5218 23.15 31.4937 23.1656 30.4687 23.0875C29.7 23.0281 29.35 22.5719 29.35 21.8094V18.5062H29.3375Z" fill="white" fill-opacity="0.5"/>
<path d="M35.1625 22.5562L35.525 22.4531L35.625 23.125L34.725 23.1719L34.6281 22.6937H34.5344L34.4219 23.1719L34.3281 23.1937L34.0625 22.3969L35.1719 22.5031L35.1625 22.5562Z" fill="#4D4D4D" fill-opacity="0.5"/>
<path d="M26.6719 10.6719C26.8594 10.775 27.1 10.8406 27.2156 10.9844C27.2875 11.0813 27.175 11.3187 27.1469 11.4937H27.0125L26.5625 10.8063L26.6719 10.6719Z" fill="white" fill-opacity="0.5"/>
<path d="M27.6157 22.4062C27.0875 21.6156 26.4469 21.525 25.5657 21.7343L26.3438 22.2593L26.25 22.4187C25.9878 22.4343 25.7248 22.4343 25.4625 22.4187C25.3894 22.4153 25.3176 22.3969 25.2518 22.3648C25.186 22.3326 25.1274 22.2874 25.0797 22.2318C25.032 22.1762 24.9962 22.1114 24.9744 22.0414C24.9526 21.9715 24.9454 21.8978 24.9532 21.825C24.9532 21.2 24.9719 20.5468 24.9532 19.9093C24.9404 19.8273 24.9465 19.7435 24.9711 19.6642C24.9957 19.5849 25.0382 19.5123 25.0952 19.452C25.1522 19.3916 25.2223 19.3452 25.3 19.3161C25.3778 19.287 25.4612 19.2762 25.5438 19.2843C26.0938 19.2656 26.6469 19.2656 27.1969 19.2843C27.2773 19.2763 27.3584 19.2868 27.4341 19.3148C27.5099 19.3429 27.5782 19.3879 27.634 19.4463C27.6897 19.5048 27.7314 19.5752 27.7558 19.6522C27.7803 19.7291 27.7868 19.8107 27.775 19.8906C27.7594 20.5156 27.775 21.1656 27.775 21.8062C27.7386 22.0103 27.6853 22.2109 27.6157 22.4062Z" fill="#4D4D4D" fill-opacity="0.5"/>
</g>
<defs>
<clipPath id="clip0_19_58">
<rect width="40" height="40" fill="white"/>
</clipPath>
</defs>
</svg>
