<svg width="40" height="40" viewBox="0 0 40 40" fill="none" xmlns="http://www.w3.org/2000/svg">
<path d="M19.9975 36.1187C19.5762 36.1187 19.1562 36.0087 18.7862 35.795L14.9287 33.5125C14.3537 33.1912 14.635 33.0762 14.825 33.01C15.5925 32.7437 15.7487 32.6825 16.5675 32.2162C16.6537 32.1687 16.7662 32.1862 16.8562 32.2387L19.8187 33.9975C19.9275 34.0575 20.0775 34.0575 20.1775 33.9975L31.7287 27.3312C31.8362 27.27 31.905 27.145 31.905 27.0187V13.6875C31.905 13.5575 31.8362 13.435 31.7262 13.3687L20.18 6.70748C20.0725 6.64498 19.9312 6.64498 19.8237 6.70748L8.27999 13.3712C8.1675 13.435 8.0975 13.5612 8.0975 13.6875V27.02C8.0975 27.1475 8.1675 27.2675 8.27875 27.3287L11.4437 29.1562C13.1612 30.015 14.2125 29.0037 14.2125 27.9875V14.825C14.2125 14.6387 14.3625 14.4925 14.5487 14.4925H16.0137C16.1962 14.4925 16.3475 14.6387 16.3475 14.825V27.9875C16.3475 30.2787 15.1 31.5937 12.9275 31.5937C12.26 31.5937 11.7337 31.5937 10.2662 30.87L7.23749 29.1262C6.48999 28.6937 6.02625 27.885 6.02625 27.0187V13.6875C6.02625 12.8212 6.48999 12.0137 7.23749 11.5825L18.79 4.90748C19.5212 4.49373 20.4925 4.49373 21.2175 4.90748L32.7687 11.5825C33.5175 12.015 33.9825 12.8225 33.9825 13.6875V27.0187C33.9825 27.885 33.5175 28.69 32.7687 29.1262L21.2175 35.795C20.8475 36.0087 20.4287 36.1187 20.0012 36.1187H19.9975ZM23.5662 26.9337C18.51 26.9337 17.4512 24.6125 17.4512 22.6662C17.4512 22.4812 17.5987 22.3337 17.7837 22.3337H19.2775C19.4437 22.3337 19.5837 22.4537 19.6087 22.6162C19.8337 24.1362 20.505 24.905 23.5637 24.905C25.9962 24.905 27.0325 24.3537 27.0325 23.0637C27.0325 22.3187 26.74 21.7675 22.9575 21.3962C19.7975 21.0837 17.8412 20.385 17.8412 17.8575C17.8412 15.5262 19.8062 14.1362 23.1 14.1362C26.8012 14.1362 28.6312 15.42 28.8637 18.1775C28.8725 18.2712 28.8387 18.3625 28.775 18.4337C28.7112 18.5012 28.6237 18.5412 28.53 18.5412H27.03C26.875 18.5412 26.7387 18.4312 26.7062 18.28C26.3462 16.68 25.4712 16.1687 23.0987 16.1687C20.4412 16.1687 20.1325 17.0937 20.1325 17.7875C20.1325 18.6287 20.4975 18.8737 24.0837 19.3475C27.6337 19.8162 29.3212 20.4812 29.3212 22.975C29.3212 25.4925 27.2237 26.9337 23.5637 26.9337H23.5662Z" fill="#444444" fill-opacity="0.5"/>
</svg>
