<svg width="40" height="40" viewBox="0 0 40 40" fill="none" xmlns="http://www.w3.org/2000/svg">
<path d="M22.7224 19.9838C22.7224 20.3764 22.6496 20.7652 22.5081 21.128C22.3667 21.4908 22.1594 21.8204 21.8981 22.098C21.6368 22.3757 21.3266 22.5959 20.9852 22.7462C20.6437 22.8964 20.2778 22.9738 19.9082 22.9738C19.5387 22.9738 19.1727 22.8964 18.8313 22.7462C18.4899 22.5959 18.1797 22.3757 17.9184 22.098C17.657 21.8204 17.4498 21.4908 17.3083 21.128C17.1669 20.7652 17.0941 20.3764 17.0941 19.9838C17.0941 19.1908 17.3906 18.4303 17.9184 17.8695C18.4461 17.3088 19.1619 16.9938 19.9082 16.9938C20.6546 16.9938 21.3704 17.3088 21.8981 17.8695C22.4259 18.4303 22.7224 19.1908 22.7224 19.9838Z" fill="#444444" fill-opacity="0.5"/>
<path d="M19.9082 30.9787C22.1177 33.2612 24.2953 34.6112 26.0506 34.6112C26.6259 34.6112 27.1706 34.4825 27.6235 34.1937C29.1965 33.2287 29.7718 30.8175 29.2271 27.3775C29.1365 26.7662 29.0153 26.1562 28.8635 25.5125C29.4682 25.32 30.0129 25.1262 30.5577 24.9337C33.6141 23.68 35.3082 21.9437 35.3082 20.0475C35.3082 18.1187 33.6141 16.3825 30.5577 15.1612C30.0129 14.9362 29.4682 14.7437 28.8635 14.5825C29.0153 13.94 29.1365 13.3287 29.2271 12.7175C29.7412 9.2137 29.1671 6.76995 27.5929 5.80495C27.1388 5.5162 26.5941 5.38745 26.02 5.38745C24.2953 5.38745 22.0859 6.73745 19.8777 9.01995C17.6988 6.73745 15.52 5.38745 13.7659 5.38745C13.1906 5.38745 12.6459 5.5162 12.1929 5.80495C10.62 6.76995 10.0447 9.1812 10.5894 12.6212C10.68 13.2325 10.8012 13.8425 10.9529 14.4862C10.3482 14.6787 9.80353 14.8725 9.25883 15.065C6.20236 16.3187 4.50824 18.055 4.50824 19.9512C4.50824 21.88 6.20236 23.6162 9.25883 24.8375C9.80353 25.0625 10.3482 25.255 10.9529 25.4162C10.8054 26.0317 10.6841 26.654 10.5894 27.2812C10.0753 30.7212 10.6494 33.165 12.1929 34.0975C12.6471 34.3875 13.1918 34.515 13.7659 34.515C15.5212 34.5787 17.7 33.2287 19.9082 30.9787ZM18.2129 26.6387C18.7577 26.6712 19.3329 26.6712 19.9071 26.6712C20.4812 26.6712 21.0565 26.6712 21.6012 26.6387C21.0677 27.3837 20.5024 28.1024 19.9071 28.7925C19.3114 28.1027 18.7461 27.384 18.2129 26.6387ZM14.4612 23.3275C14.7635 23.8737 15.0365 24.3887 15.3694 24.9025C14.4761 24.7807 13.5879 24.6197 12.7071 24.42C12.98 23.5525 13.2824 22.6512 13.6447 21.7512C13.8871 22.2649 14.1588 22.8125 14.4612 23.3262V23.3275ZM12.7059 15.5787C13.5529 15.3862 14.4306 15.225 15.3682 15.0962C15.0659 15.6112 14.7635 16.125 14.46 16.6712C14.1565 17.2175 13.8847 17.7325 13.6435 18.2787C13.2742 17.4017 12.961 16.5005 12.7059 15.5787ZM14.3706 19.9837C14.7635 19.1162 15.1871 18.2475 15.6718 17.38C16.1259 16.5437 16.64 15.7087 17.1541 14.8725C18.9882 14.7429 20.8283 14.7429 22.6624 14.8725C23.2071 15.7087 23.6906 16.5437 24.1447 17.38C24.6294 18.2475 25.0529 19.1162 25.4459 19.9837C25.0482 20.8714 24.614 21.7401 24.1447 22.5875C23.6906 23.4237 23.1765 24.2587 22.6624 25.095C20.8283 25.2245 18.9882 25.2245 17.1541 25.095C16.6277 24.2812 16.1332 23.4446 15.6718 22.5875C15.2027 21.74 14.7686 20.8713 14.3706 19.9837ZM26.2024 18.2475L25.3859 16.64C25.0835 16.0937 24.8106 15.5787 24.4777 15.065C25.4153 15.1937 26.2929 15.355 27.14 15.5475C26.8682 16.4475 26.5647 17.3462 26.2024 18.2475ZM26.2024 21.72C26.5659 22.62 26.8682 23.52 27.14 24.3887C26.2929 24.5812 25.4153 24.7425 24.4777 24.8712C24.78 24.3562 25.0824 23.8425 25.3859 23.2962C25.6588 22.8137 25.9306 22.2675 26.2024 21.7212V21.72ZM26.8977 32.8762C26.6553 33.0375 26.3529 33.1012 26.02 33.1012C24.5377 33.1012 22.6918 31.815 20.8765 29.8862C21.8014 28.8209 22.6604 27.6931 23.4482 26.51C24.8138 26.3915 26.1693 26.1659 27.5035 25.835C27.6553 26.4137 27.7459 26.9925 27.8365 27.5712C28.26 30.3037 27.9259 32.265 26.8977 32.8762ZM28.4718 15.9325C31.8612 16.9612 33.8882 18.5362 33.8882 19.9837C33.8882 21.2375 32.4965 22.4912 30.0459 23.4887C29.5612 23.6812 29.0177 23.875 28.4729 24.035C28.0612 22.6521 27.5661 21.2989 26.9906 19.9837C27.5953 18.6012 28.1094 17.2512 28.4718 15.9325ZM26.0506 6.8662C26.3835 6.8662 26.6553 6.92995 26.9282 7.0912C27.9271 7.70245 28.2894 9.6312 27.8659 12.3962C27.7753 12.9425 27.6541 13.5212 27.5329 14.1325C26.1933 13.8318 24.8397 13.6065 23.4777 13.4575C22.6991 12.2669 21.8395 11.1385 20.9059 10.0812C22.7212 8.1837 24.5682 6.8662 26.0506 6.8662ZM21.6024 13.3287C21.0577 13.2962 20.4824 13.2962 19.9082 13.2962C19.3341 13.2962 18.7588 13.2962 18.2141 13.3287C18.7588 12.5575 19.3341 11.85 19.9082 11.175C20.4835 11.85 21.0577 12.59 21.6024 13.3287ZM12.9177 7.0912C13.16 6.92995 13.4624 6.8662 13.7953 6.8662C15.2777 6.8662 17.1235 8.15245 18.9388 10.0812C18.0136 11.1462 17.1546 12.274 16.3671 13.4575C15.0015 13.5759 13.646 13.8015 12.3118 14.1325C12.16 13.5537 12.0694 12.975 11.9788 12.3962C11.5553 9.6637 11.8894 7.73495 12.9177 7.0912ZM11.3447 24.035C7.9553 23.0062 5.92824 21.4312 5.92824 19.9837C5.92824 18.73 7.32001 17.4762 9.77059 16.48C10.2553 16.2875 10.7988 16.0937 11.3435 15.9337C11.7552 17.3165 12.2504 18.6698 12.8259 19.985C12.2212 21.3675 11.7059 22.75 11.3435 24.0362L11.3447 24.035ZM11.98 27.5712C12.0706 27.025 12.1918 26.4462 12.3129 25.835C13.5835 26.125 14.9459 26.35 16.3682 26.51C17.1468 27.7005 18.0064 28.8289 18.94 29.8862C17.1247 31.7825 15.2788 33.1012 13.7965 33.1012C13.4635 33.1012 13.1918 33.0375 12.9188 32.8762C11.8894 32.265 11.5577 30.3037 11.9812 27.5712H11.98Z" fill="#444444" fill-opacity="0.5"/>
</svg>
