<svg width="174" height="36" viewBox="0 0 174 36" fill="none" xmlns="http://www.w3.org/2000/svg">
<path d="M16.032 0.439941L21.168 16.9999L32.208 0.439941H41.28L35.184 34.9999H26.496L29.952 15.5119L22.56 27.1279H16.272L13.008 15.5119L9.55199 34.9999H0.911987L7.00799 0.439941H16.032Z" fill="white"/>
<path d="M64.6774 27.6079C64.6774 28.4399 65.0934 28.8559 65.9254 28.8559C66.7894 28.8559 67.5094 28.6959 68.0854 28.3759L67.8454 33.7999C66.3094 35.0479 64.5814 35.6719 62.6614 35.6719C59.1414 35.6719 57.1894 34.3919 56.8054 31.8319C55.2054 34.3919 52.8534 35.6719 49.7494 35.6719C44.5014 35.6719 41.8774 33.4159 41.8774 28.9039C41.8774 28.1359 41.9574 27.2879 42.1174 26.3599L43.1254 20.7439C43.6374 17.8639 44.8054 15.5759 46.6294 13.8799C48.4854 12.1519 50.8854 11.2879 53.8294 11.2879C56.8054 11.2879 58.8214 11.9759 59.8774 13.3519L60.1174 11.9119H67.4134L64.7254 27.0319C64.6934 27.2239 64.6774 27.4159 64.6774 27.6079ZM50.4694 25.3039C50.4054 25.5919 50.3734 25.9919 50.3734 26.5039C50.3734 27.0159 50.6134 27.5279 51.0934 28.0399C51.5734 28.5199 52.3734 28.7599 53.4934 28.7599C54.6454 28.7599 55.6374 28.3119 56.4694 27.4159L57.9094 19.3519C57.5574 18.5519 56.7254 18.1519 55.4134 18.1519C52.9494 18.1519 51.5094 19.3359 51.0934 21.7039L50.4694 25.3039Z" fill="white"/>
<path d="M94.3204 16.8079C94.3204 17.8959 94.1284 18.9519 93.7444 19.9759C93.3924 20.9999 93.0404 21.7519 92.6884 22.2319L92.1604 22.9039H84.9124C85.7124 22.1679 86.1124 21.2559 86.1124 20.1679C86.1124 19.5919 85.9204 19.1279 85.5364 18.7759C85.1844 18.3919 84.6884 18.1999 84.0484 18.1999C82.9604 18.1999 82.0164 18.7439 81.2164 19.8319L78.5284 34.9999H70.3684L74.4484 11.9119H82.0324L81.4564 15.1279C83.2804 12.5359 85.4884 11.2399 88.0804 11.2399C90.1604 11.2399 91.7124 11.7359 92.7364 12.7279C93.7924 13.7199 94.3204 15.0799 94.3204 16.8079Z" fill="white"/>
<path d="M105.393 35.6719C98.7366 35.6719 95.4086 33.3679 95.4086 28.7599C95.4086 28.1199 95.4726 27.4319 95.6006 26.6959L96.6086 20.7439C97.1206 17.6719 98.5126 15.3199 100.785 13.6879C103.089 12.0559 106.001 11.2239 109.521 11.1919C116.337 11.1919 119.745 13.5599 119.745 18.2959C119.745 19.3199 119.617 20.2479 119.361 21.0799C119.137 21.8799 118.897 22.4239 118.641 22.7119L118.257 23.1919H110.097C110.897 22.4879 111.297 21.6559 111.297 20.6959C111.297 18.9679 110.433 18.1039 108.705 18.1039C107.681 18.1039 106.801 18.4079 106.065 19.0159C105.329 19.6239 104.849 20.5519 104.625 21.7999L104.001 25.3039C103.937 25.6239 103.905 25.9279 103.905 26.2159C103.905 27.9119 104.961 28.7599 107.073 28.7599C107.777 28.7599 108.401 28.5359 108.945 28.0879C109.521 27.6399 109.857 27.1439 109.953 26.5999L117.921 26.6959C116.865 32.6799 112.689 35.6719 105.393 35.6719Z" fill="white"/>
<path d="M136.439 11.2399C139.895 11.2399 142.503 11.9919 144.263 13.4959C145.639 14.6799 146.327 16.3279 146.327 18.4399C146.327 19.1439 146.247 19.9119 146.087 20.7439L145.079 26.3599C144.471 29.7519 143.047 32.1519 140.807 33.5599C138.599 34.9679 135.639 35.6719 131.927 35.6719C128.215 35.6719 125.495 34.9679 123.767 33.5599C122.487 32.5039 121.847 30.9199 121.847 28.8079C121.847 28.0719 121.927 27.2559 122.087 26.3599L123.095 20.7439C124.215 14.4079 128.663 11.2399 136.439 11.2399ZM137.735 21.7039C137.799 21.3839 137.831 20.9839 137.831 20.5039C137.831 19.9919 137.623 19.4319 137.207 18.8239C136.791 18.2159 136.055 17.9119 134.999 17.9119C133.975 17.9119 133.111 18.2639 132.407 18.9679C131.703 19.6399 131.255 20.5519 131.063 21.7039L130.439 25.3039C130.375 25.6239 130.343 26.0399 130.343 26.5519C130.343 27.0319 130.551 27.5599 130.967 28.1359C131.383 28.7119 132.103 28.9999 133.127 28.9999C134.183 28.9999 135.063 28.6479 135.767 27.9439C136.471 27.2079 136.919 26.3279 137.111 25.3039L137.735 21.7039Z" fill="white"/>
<path d="M173.181 16.9039C173.181 17.9599 172.861 18.9359 172.221 19.8319H164.349C164.605 19.6399 164.733 19.3199 164.733 18.8719C164.733 18.4239 164.477 18.0719 163.965 17.8159C163.453 17.5279 162.797 17.3839 161.997 17.3839C159.597 17.3839 158.397 18.1199 158.397 19.5919C158.397 20.1679 158.845 20.5839 159.741 20.8399C160.637 21.0959 161.725 21.3039 163.005 21.4639C164.285 21.6239 165.565 21.8639 166.845 22.1839C168.125 22.4719 169.213 23.0639 170.109 23.9599C171.005 24.8559 171.453 26.0559 171.453 27.5599C171.453 30.2159 170.381 32.2319 168.237 33.6079C166.125 34.9839 163.037 35.6719 158.973 35.6719C154.909 35.6719 152.061 35.0159 150.429 33.7039C149.149 32.6799 148.509 31.2719 148.509 29.4799C148.509 28.9679 148.557 28.4399 148.653 27.8959L156.669 27.7999C156.605 28.2479 156.861 28.6479 157.437 28.9999C158.045 29.3199 158.925 29.4799 160.077 29.4799C161.229 29.4799 162.061 29.3679 162.573 29.1439C163.085 28.8879 163.341 28.4239 163.341 27.7519C163.341 27.3039 162.893 26.9999 161.997 26.8399C161.101 26.6479 159.997 26.4879 158.685 26.3599C157.405 26.2319 156.109 26.0239 154.797 25.7359C153.517 25.4479 152.429 24.8399 151.533 23.9119C150.637 22.9839 150.189 21.7679 150.189 20.2639C150.189 17.3519 151.309 15.1119 153.549 13.5439C155.821 11.9759 159.085 11.1919 163.341 11.1919C169.901 11.1919 173.181 13.0959 173.181 16.9039Z" fill="white"/>
</svg>
